<svg xmlns="http://www.w3.org/2000/svg" viewBox="0 0 80 54"><defs><filter id="r"><feTurbulence type="fractalNoise" baseFrequency=".04" numOctaves="2" seed="8"/><feDisplacementMap in="SourceGraphic" scale="1.2"/></filter></defs><ellipse cx="40" cy="46" rx="31" ry="5" fill="#f2e8dd"/><g filter="url(#r)"><path d="M15 27h48l-5 17H20z" fill="#e5a16b" stroke="#31536a" stroke-width="2"/><path d="M25 27c1-10 7-16 14-16s13 6 14 16" fill="none" stroke="#31536a" stroke-width="2"/><rect x="8" y="15" width="13" height="15" rx="2" fill="#f8fbf7" stroke="#31536a" stroke-width="1.7"/><path d="M21 18h4c5 0 5 8 0 8h-4" fill="none" stroke="#31536a" stroke-width="1.7"/><path d="M47 22c-6-8 0-15 7-15 6 0 10 5 9 10-1 3-3 5-6 6" fill="#fffaf2" stroke="#31536a" stroke-width="1.6"/><circle cx="57" cy="14" r="1.2" fill="#31536a"/><path d="M64 10c4-5 8-4 10-2-4 2-7 2-10 2z" fill="#77a790"/></g></svg>