<svg xmlns="http://www.w3.org/2000/svg" viewBox="0 0 520 380"><rect width="520" height="380" rx="28" fill="#f6f1ea"/><circle cx="112" cy="76" r="48" fill="#e3f1ff"/><circle cx="412" cy="86" r="60" fill="#e6f1df"/><text x="260" y="58" text-anchor="middle" font-family="Arial, sans-serif" font-size="34" font-weight="800" fill="#17456a">MARTTIINI</text><path d="M150 165c-24-48 26-70 52-22 5-48 55-50 61 0 19-39 65-28 58 18 32-24 70 5 50 45-25 53-74 82-136 79-65-4-92-48-85-120z" fill="#8a4b32" stroke="#5c2d1f" stroke-width="8"/><path d="M258 142c3 53 0 92-8 136M203 142c14 52 12 95-2 132M320 160c-10 45-24 79-48 116" fill="none" stroke="#ad6c4a" stroke-width="7" stroke-linecap="round"/><path d="M156 204c72 18 142 19 214-4" fill="none" stroke="#5c2d1f" stroke-width="6" opacity=".55"/><rect x="78" y="318" width="364" height="38" rx="19" fill="#fff" opacity=".92"/><text x="260" y="343" text-anchor="middle" font-family="Arial, sans-serif" font-size="23" font-weight="700" fill="#17456a">Marttiini 馴鹿皮手套・拉普蘭特色</text></svg>